<mxfile host="app.diagrams.net" modified="2023-07-23T12:53:55.316Z" agent="Mozilla/5.0 (Windows NT 10.0; Win64; x64) AppleWebKit/537.36 (KHTML, like Gecko) Chrome/115.0.0.0 Safari/537.36 Edg/115.0.1901.183" version="21.6.5" etag="dNUOvW1mdixx6dPZTGQI" type="github">
  <diagram name="Halaman-1" id="qDCoZ0gxAR9lAThdU5mK">
    <mxGraphModel>
      <root>
        <mxCell id="0" />
        <mxCell id="1" parent="0" />
      </root>
    </mxGraphModel>
  </diagram>
</mxfile>
